<?xml version="1.0" encoding="utf-8"?>
<!-- Generator: Adobe Illustrator 27.5.0, SVG Export Plug-In . SVG Version: 6.00 Build 0)  -->
<svg version="1.1" xmlns="http://www.w3.org/2000/svg" xmlns:xlink="http://www.w3.org/1999/xlink" x="0px" y="0px"
	 viewBox="0 0 750 500" style="enable-background:new 0 0 750 500;" xml:space="preserve">
<g id="BACKGROUND">
	<rect style="fill:#FFFFFF;" width="750" height="500"/>
</g>
<g id="OBJECTS">
	<g>
		<path style="fill:#F4F4F4;" d="M653.741,401.085c-186.667,0.627-373.333,1.255-560,1.882c-25.679,9.43-43.563,18.953-42.64,27.171
			c5.48,48.8,644.135,42.337,647.817-3.641C699.553,418.559,681.221,409.788,653.741,401.085z"/>
		<path style="fill:#F4F4F4;" d="M294.8,261.32v-7.412h331.502c-0.409-1.557-0.826-3.075-1.254-4.541h-296.25V36.04
			c-18.351,2.819-36.79,8.146-55.027,16.584c-39.821,18.423-31.785,268.229-128.419,321.768
			c-27.4,15.181-59.733,12.673-59.344,16.899c0.527,5.714,59.166,5.038,111.045,3.442h419.643c1.609-1.058,3.145-2.221,4.575-3.529
			c18.857-17.248,16.631-86.114,6.827-129.882H294.8z"/>
		<g>
			<g>
				<rect x="519.213" y="135.777" style="fill:#DBDBDB;" width="77.384" height="12.735"/>
				<rect x="353.501" y="135.777" style="fill:#F4F4F4;" width="224.446" height="12.735"/>
				<rect x="519.213" y="96.054" style="fill:#DBDBDB;" width="77.384" height="12.736"/>
				<rect x="353.501" y="96.054" style="fill:#F4F4F4;" width="224.446" height="12.736"/>
				<rect x="519.213" y="63.399" style="fill:#DBDBDB;" width="77.384" height="12.735"/>
				<rect x="353.501" y="63.399" style="fill:#F4F4F4;" width="224.446" height="12.735"/>
			</g>
			<g>
				<rect x="519.213" y="196.888" style="fill:#DBDBDB;" width="77.384" height="12.735"/>
				<rect x="353.501" y="196.888" style="fill:#F4F4F4;" width="224.446" height="12.735"/>
				<rect x="519.213" y="164.233" style="fill:#DBDBDB;" width="77.384" height="12.735"/>
				<rect x="353.501" y="164.233" style="fill:#F4F4F4;" width="224.446" height="12.735"/>
			</g>
		</g>
		<g>
			<g>
				<g>
					<rect x="102.612" y="304.499" style="fill:#F4F4F4;" width="63.63" height="83.286"/>
					<rect x="102.612" y="304.499" style="fill:#DBDBDB;" width="63.63" height="83.286"/>
					<path style="fill:#F4F4F4;" d="M155.682,388.858v-2.589h4.979v2.589c0,0,3.186,1.195,3.286,1.792
						c0.1,0.598-2.39,2.589-5.776,2.589c-3.386,0-5.875-1.991-5.775-2.589C152.496,390.053,155.682,388.858,155.682,388.858z"/>
					<path style="fill:#F4F4F4;" d="M101.193,388.858v-2.589h4.979v2.589c0,0,3.186,1.195,3.286,1.792s-2.39,2.589-5.775,2.589
						c-3.386,0-5.875-1.991-5.775-2.589C98.007,390.053,101.193,388.858,101.193,388.858z"/>
					<path style="fill:#DBDBDB;" d="M155.682,388.858v-2.589h4.979v2.589c0,0,3.186,1.195,3.286,1.792
						c0.1,0.598-2.39,2.589-5.776,2.589c-3.386,0-5.875-1.991-5.775-2.589C152.496,390.053,155.682,388.858,155.682,388.858z"/>
					<path style="fill:#DBDBDB;" d="M101.193,388.858v-2.589h4.979v2.589c0,0,3.186,1.195,3.286,1.792s-2.39,2.589-5.775,2.589
						c-3.386,0-5.875-1.991-5.775-2.589C98.007,390.053,101.193,388.858,101.193,388.858z"/>
					<rect x="94.339" y="304.499" style="fill:#F4F4F4;" width="63.63" height="83.286"/>
					<rect x="98.074" y="313.843" style="fill:#FFFFFF;" width="55.362" height="18.24"/>
					<rect x="98.074" y="336.809" style="fill:#FFFFFF;" width="55.362" height="18.24"/>
					<rect x="98.074" y="359.776" style="fill:#FFFFFF;" width="55.362" height="18.24"/>
				</g>
				<g>
					<path style="fill:#F4F4F4;" d="M121.936,269.846c-1.467-2.69-5.245-2.572-8.272-3.049c-2.244-0.354-4.465-1.281-5.998-2.958
						c-1.533-1.677-2.261-4.178-1.478-6.311c0.869-2.371,3.45-4.254,3.075-6.751c-0.399-2.66-3.739-3.596-5.511-5.62
						c-1.864-2.129-1.675-5.739,0.401-7.662c2.076-1.923,5.689-1.837,7.67,0.184c2.756,2.811,2.109,8.035,5.298,10.344
						c2.397,1.736,6.367,1.288,7.732,3.914c1.66,3.193-2.583,7.253-0.864,10.414c1.294,2.38,5.212,2.525,6.116,5.078
						c0.942,2.657-1.89,5.774-1.64,8.604c0.192,2.169,2.443,3.174-0.183,4.246C121.837,282.909,122.991,271.78,121.936,269.846z"/>
					<path style="fill:#F4F4F4;" d="M143.047,274.162c1.854-0.962,1.826-3.54,2.193-5.596c0.272-1.525,0.935-3.026,2.099-4.048
						c1.164-1.022,2.879-1.483,4.323-0.92c1.604,0.626,2.852,2.411,4.559,2.19c1.819-0.235,2.503-2.499,3.907-3.679
						c1.477-1.241,3.935-1.062,5.217,0.379c1.282,1.442,1.173,3.904-0.232,5.226c-1.954,1.84-5.507,1.326-7.125,3.468
						c-1.216,1.61-0.966,4.322-2.775,5.217c-2.199,1.087-4.908-1.861-7.087-0.733c-1.64,0.849-1.794,3.518-3.546,4.099
						c-1.824,0.605-3.91-1.368-5.843-1.237c-1.481,0.101-2.197,1.621-2.891-0.184C134.144,273.914,141.714,274.854,143.047,274.162z
						"/>
					<path style="fill:#F4F4F4;" d="M116.471,272.437c-1.657-1.272-1.179-3.805-1.181-5.893c-0.002-1.549-0.392-3.143-1.36-4.352
						c-0.968-1.21-2.576-1.963-4.095-1.661c-1.689,0.336-3.229,1.875-4.872,1.36c-1.75-0.549-2.028-2.898-3.204-4.305
						c-1.238-1.48-3.689-1.733-5.203-0.538c-1.514,1.195-1.837,3.639-0.685,5.186c1.603,2.153,5.19,2.268,6.409,4.659
						c0.916,1.797,0.196,4.425,1.821,5.621c1.976,1.455,5.158-0.975,7.106,0.516c1.466,1.123,1.151,3.777,2.776,4.655
						c1.691,0.914,4.089-0.664,5.969-0.197c1.441,0.358,1.88,1.98,2.879,0.324C125.281,273.748,117.663,273.352,116.471,272.437z"/>
					<path style="fill:#F4F4F4;" d="M135.516,273.238c0.688-2.468,3.789-3.085,6.164-4.045c1.762-0.712,3.396-1.886,4.329-3.542
						c0.933-1.656,1.054-3.831,0.014-5.421c-1.156-1.768-3.614-2.815-3.78-4.92c-0.177-2.243,2.368-3.635,3.43-5.618
						c1.117-2.087,0.282-4.992-1.772-6.167c-2.054-1.175-4.982-0.423-6.215,1.597c-1.715,2.81-0.202,6.944-2.365,9.427
						c-1.625,1.866-4.945,2.251-5.562,4.648c-0.75,2.915,3.473,5.422,2.669,8.322c-0.605,2.183-3.77,3.041-4.025,5.291
						c-0.266,2.343,2.629,4.348,2.96,6.701c0.253,1.804-1.392,3.047,0.95,3.424C138.061,283.863,135.021,275.013,135.516,273.238z"
						/>
					<path style="fill:none;stroke:#DBDBDB;stroke-width:1.7646;stroke-miterlimit:10;" d="M106.245,239.117
						c3.524,0.936,6.228,4.361,6.323,8.005c0.035,1.355-0.253,2.702-0.219,4.057c0.035,1.355,0.476,2.813,1.601,3.568
						c1.321,0.887,3.34,0.658,4.27,1.95c1.404,1.951-1.211,5.179,0.455,6.912c0.72,0.749,1.889,0.761,2.869,1.103
						c2.854,0.994,3.747,4.554,3.936,7.57c0.189,3.016,0.295,6.462,2.619,8.394"/>
					<path style="fill:none;stroke:#DBDBDB;stroke-width:1.7646;stroke-miterlimit:10;" d="M140.462,246.413
						c1.558,1.69,0.589,4.427-0.687,6.339c-1.276,1.912-2.876,4.028-2.323,6.259c0.324,1.307,1.364,2.384,1.521,3.721
						c0.256,2.17-1.791,3.803-3.186,5.484c-2.623,3.16-3.21,7.871-1.442,11.578"/>
					<path style="fill:none;stroke:#DBDBDB;stroke-width:1.7646;stroke-miterlimit:10;" d="M162.108,265.873
						c-0.421,2.182-2.897,3.255-5.083,3.652c-2.186,0.396-4.633,0.58-6.162,2.192c-1.147,1.21-1.616,3.096-3.1,3.856
						c-0.942,0.482-2.06,0.377-3.111,0.497c-2.516,0.287-4.811,2.035-5.756,4.384"/>
					<path style="fill:none;stroke:#DBDBDB;stroke-width:1.7646;stroke-miterlimit:10;" d="M98.634,258.65
						c0.949,3.246,3.591,5.945,6.816,6.963c1.565,0.494,3.415,0.724,4.349,2.074c0.766,1.107,0.654,2.663,1.473,3.731
						c1.151,1.501,3.559,1.365,4.925,2.674c0.949,0.909,1.188,2.304,1.584,3.557c0.397,1.253,1.203,2.596,2.507,2.754"/>
					<rect x="115.05" y="276.622" style="fill:#F4F4F4;" width="27.776" height="27.776"/>
					<rect x="117.172" y="280.453" style="fill:#FFFFFF;" width="6.141" height="23.945"/>
				</g>
			</g>
			<polygon style="fill:#F4F4F4;" points="114.258,318.052 139.143,318.052 139.143,320.343 114.258,320.343 114.258,323.497 
				112.366,323.497 112.366,320.343 112.366,318.052 			"/>
			<polygon style="fill:#F4F4F4;" points="114.258,340.485 139.143,340.485 139.143,342.776 114.258,342.776 114.258,345.929 
				112.366,345.929 112.366,342.776 112.366,340.485 			"/>
			<polygon style="fill:#F4F4F4;" points="114.258,364.008 139.143,364.008 139.143,366.299 114.258,366.299 114.258,369.453 
				112.366,369.453 112.366,366.299 112.366,364.008 			"/>
		</g>
		<g>
			
				<rect x="88.447" y="68.227" transform="matrix(-1 -1.224647e-16 1.224647e-16 -1 249.1981 226.2864)" style="fill:#F4F4F4;" width="72.304" height="89.832"/>
			
				<rect x="88.967" y="86.276" transform="matrix(-1.836970e-16 1 -1 -1.836970e-16 237.7421 -11.4557)" style="fill:#FFFFFF;" width="71.263" height="53.734"/>
		</g>
		<g>
			<path style="fill:none;stroke:#FFFFFF;stroke-width:3;stroke-miterlimit:10;" d="M331.46,400.07v-5.956
				c0-8.23,6.672-14.902,14.902-14.902h284.006"/>
			
				<line style="fill:none;stroke:#FFFFFF;stroke-width:3;stroke-miterlimit:10;" x1="343.225" y1="323.188" x2="601.191" y2="323.188"/>
			<path style="fill:#FFFFFF;" d="M347.912,327.009l-7.069,1.962c-2.219,0.616-4.523-0.773-4.95-3.036
				c-0.19-1.006-0.298-2.143-0.245-3.387c0.031-0.72,0.112-1.397,0.227-2.024c0.419-2.299,2.715-3.743,4.967-3.118l7.07,1.963
				c1.716,0.477,2.904,2.039,2.904,3.82l0,0C350.816,324.97,349.628,326.532,347.912,327.009z"/>
			<g>
				<g>
					<polygon style="fill:#FFFFFF;" points="377.348,386.658 364.995,392.306 352.642,386.658 352.642,312.541 364.995,306.894 
						377.348,312.541 					"/>
					<path style="fill:#F4F4F4;" d="M372.261,311.314l-4.358-1.992c-0.811-0.371-1.67-0.57-2.555-0.614v81.783
						c0.884-0.044,1.744-0.243,2.555-0.614l4.358-1.992c2.482-1.135,4.087-3.632,4.087-6.362v-63.846
						C376.348,314.947,374.744,312.45,372.261,311.314z"/>
				</g>
				<g>
					<polygon style="fill:#FFFFFF;" points="402.054,386.658 389.701,392.306 377.348,386.658 377.348,312.541 389.701,306.894 
						402.054,312.541 					"/>
					<path style="fill:#F4F4F4;" d="M396.967,311.314l-4.358-1.992c-0.811-0.371-1.67-0.57-2.555-0.614v81.783
						c0.884-0.044,1.744-0.243,2.555-0.614l4.358-1.992c2.482-1.135,4.087-3.632,4.087-6.362v-63.846
						C401.054,314.947,399.449,312.45,396.967,311.314z"/>
				</g>
				<g>
					<polygon style="fill:#FFFFFF;" points="426.76,386.658 414.407,392.306 402.054,386.658 402.054,312.541 414.407,306.894 
						426.76,312.541 					"/>
					<path style="fill:#F4F4F4;" d="M421.673,311.314l-4.358-1.992c-0.811-0.371-1.67-0.57-2.555-0.614v81.783
						c0.884-0.044,1.744-0.243,2.555-0.614l4.358-1.992c2.483-1.135,4.087-3.632,4.087-6.362v-63.846
						C425.76,314.947,424.155,312.45,421.673,311.314z"/>
				</g>
				<g>
					<polygon style="fill:#FFFFFF;" points="451.466,386.658 439.113,392.306 426.76,386.658 426.76,312.541 439.113,306.894 
						451.466,312.541 					"/>
					<path style="fill:#F4F4F4;" d="M446.379,311.314l-4.358-1.992c-0.811-0.371-1.67-0.57-2.555-0.614v81.783
						c0.885-0.044,1.744-0.243,2.555-0.614l4.358-1.992c2.483-1.135,4.087-3.632,4.087-6.362v-63.846
						C450.466,314.947,448.861,312.45,446.379,311.314z"/>
				</g>
				<g>
					<polygon style="fill:#FFFFFF;" points="476.171,386.658 463.818,392.306 451.466,386.658 451.466,312.541 463.818,306.894 
						476.171,312.541 					"/>
					<path style="fill:#F4F4F4;" d="M471.085,311.314l-4.358-1.992c-0.811-0.371-1.67-0.57-2.555-0.614v81.783
						c0.885-0.044,1.744-0.243,2.555-0.614l4.358-1.992c2.482-1.135,4.087-3.632,4.087-6.362v-63.846
						C475.172,314.947,473.567,312.45,471.085,311.314z"/>
				</g>
			</g>
		</g>
		<g>
			
				<rect x="538.847" y="280.943" transform="matrix(-1 -1.224647e-16 1.224647e-16 -1 1225.0051 695.1227)" style="fill:#F4F4F4;" width="147.312" height="133.236"/>
			
				<rect x="671.365" y="280.943" transform="matrix(-1 -1.224647e-16 1.224647e-16 -1 1357.5237 695.1227)" style="fill:#DBDBDB;" width="14.793" height="133.236"/>
			
				<rect x="541.933" y="285.865" transform="matrix(-1 -1.224647e-16 1.224647e-16 -1 1206.0073 694.5114)" style="fill:#FFFFFF;" width="122.142" height="122.782"/>
			<polygon style="fill:#F4F4F4;" points="562.475,292.078 650.542,292.078 650.542,295.583 562.475,295.583 562.475,300.407 
				559.581,300.407 559.581,295.583 559.581,292.078 			"/>
		</g>
		<g>
			<rect x="564.21" y="234.964" style="fill:#F4F4F4;" width="105.882" height="46.588"/>
			<rect x="564.21" y="234.964" style="fill:#DBDBDB;" width="105.882" height="46.588"/>
			<rect x="553.626" y="234.964" style="fill:#F4F4F4;" width="105.882" height="46.588"/>
			<g>
				<path style="fill:#DBDBDB;" d="M578.096,274.2c-9.438,0-17.117-7.679-17.117-17.118c0-9.438,7.679-17.117,17.117-17.117
					c9.44,0,17.118,7.679,17.118,17.117C595.215,266.521,587.536,274.2,578.096,274.2z"/>
				
					<ellipse transform="matrix(0.5667 -0.8239 0.8239 0.5667 38.6744 587.7036)" style="fill:#DBDBDB;" cx="578.097" cy="257.082" rx="14.118" ry="14.118"/>
				<circle style="fill:#DBDBDB;" cx="578.097" cy="257.082" r="6.322"/>
			</g>
			<g>
				<path style="fill:#DBDBDB;" d="M634.268,274.2c-9.438,0-17.117-7.679-17.117-17.118c0-9.438,7.679-17.117,17.117-17.117
					c9.44,0,17.118,7.679,17.118,17.117C651.386,266.521,643.708,274.2,634.268,274.2z"/>
				
					<ellipse transform="matrix(0.7071 -0.7071 0.7071 0.7071 3.9884 523.793)" style="fill:#DBDBDB;" cx="634.268" cy="257.082" rx="14.118" ry="14.118"/>
				<circle style="fill:#DBDBDB;" cx="634.268" cy="257.082" r="6.322"/>
			</g>
			<g>
				<path style="fill:#DBDBDB;" d="M606.567,255.601c-4.311,0-7.818-3.507-7.818-7.819c0-4.311,3.507-7.818,7.818-7.818
					c4.311,0,7.819,3.507,7.819,7.818C614.386,252.094,610.878,255.601,606.567,255.601z"/>
				<path style="fill:#DBDBDB;" d="M613.015,247.783c0,3.561-2.887,6.448-6.448,6.448c-3.561,0-6.448-2.887-6.448-6.448
					c0-3.561,2.887-6.448,6.448-6.448C610.128,241.335,613.015,244.222,613.015,247.783z"/>
				<path style="fill:#DBDBDB;" d="M613.015,267.752c0,3.561-2.887,6.448-6.448,6.448c-3.561,0-6.448-2.887-6.448-6.448
					s2.887-6.448,6.448-6.448C610.128,261.304,613.015,264.191,613.015,267.752z"/>
				<path style="fill:#DBDBDB;" d="M603.68,247.783c0-1.595,1.293-2.887,2.887-2.887c1.595,0,2.887,1.293,2.887,2.887
					c0,1.595-1.293,2.887-2.887,2.887C604.972,250.67,603.68,249.377,603.68,247.783z"/>
			</g>
		</g>
		<path style="fill:#F4F4F4;" d="M637.152,153.119c0,0-5.975-5.158,2.964,39.384c-1.162-0.289-2.376-0.391-3.316-0.359
			c-1.806,0.062-5.62,0.711-6.353,3.043c-0.851,2.708,2.609,7.193,6.706,7.192c4.086-0.001,7.553-4.465,6.706-7.192l-3.268-34.808
			c0,0,19.735,3.485,7.796,26.095C648.386,186.475,670.092,170.601,637.152,153.119z"/>
		<path style="fill:#FFFFFF;" d="M494.451,279.153c0,0-5.444-0.435,17.76,20.764c-0.767,0.314-1.486,0.753-1.997,1.156
			c-0.982,0.773-2.845,2.695-2.3,4.296c0.633,1.859,4.398,2.947,6.683,1.271c2.279-1.672,2.388-5.58,0.801-6.755l-16.058-18.086
			c0,0,12.437-6.126,15.021,11.373C514.36,293.171,519.98,275.437,494.451,279.153z"/>
		<path style="fill:#DBDBDB;" d="M669.357,194.61c0,0-0.798-4.894-14.452,20.167c-0.443-0.608-0.987-1.147-1.453-1.51
			c-0.895-0.698-2.994-1.924-4.287-1.096c-1.502,0.962-1.643,4.517,0.33,6.168c1.969,1.647,5.438,0.894,6.13-0.761l12.46-18.085
			c0,0,8.101,9.636-6.766,15.714C661.32,215.207,678.176,216.313,669.357,194.61z"/>
		<path style="fill:#DBDBDB;" d="M512.479,215.439c0,0-4.383-2.318,7.352,23.696c-0.752-0.014-1.51,0.094-2.081,0.246
			c-1.097,0.292-3.341,1.225-3.462,2.756c-0.14,1.778,2.609,4.037,5.117,3.461c2.501-0.575,3.996-3.796,3.094-5.346l-6.894-20.852
			c0,0,12.573-0.641,8.442,14.881C524.047,234.282,535.105,221.512,512.479,215.439z"/>
	</g>
	<g>
		<path style="fill:#381905;" d="M246.171,157.48c-0.24,1.303-0.658,2.585-1.121,3.823c-0.429,1.148-1.3,2.095-1.674,3.303
			c-0.359,1.16-0.355,2.493,0.298,3.518c0.488,0.767,1.279,1.285,1.877,1.97c0.598,0.685,0.991,1.721,0.508,2.491
			c0.498-0.363,0.628-1.082,0.458-1.674c-0.169-0.593-0.579-1.084-1.001-1.533c-0.422-0.449-0.874-0.885-1.162-1.43
			c-0.703-1.33-0.278-2.966,0.321-4.346c0.287-0.661,0.61-1.308,0.869-1.982c0.269-0.701,0.323-1.393,0.501-2.106
			c0.37-1.478,0.64-2.967,0.836-4.487c0.385-2.982,0.708-6.16,0.458-9.167c-0.199-2.396-1.367,1.044-1.479,1.82
			c-0.206,1.436,0.286,2.916,0.433,4.345C246.481,153.839,246.503,155.68,246.171,157.48z"/>
		<path style="fill:#381905;" d="M246.786,150.294c0.191,1.589,0.408,3.202,0.152,4.782c-0.256,1.58-1.064,3.154-2.465,3.928
			c-1.401,0.774-3.423,0.48-4.254-0.888c0.391,1.775,2.661,2.666,4.361,2.022c1.7-0.644,2.776-2.397,3.131-4.18
			c0.355-1.783,0.114-3.623-0.089-5.43c-0.21-1.872-0.135-3.549,0.11-5.397C245.998,144.197,246.702,149.596,246.786,150.294z"/>
		<path style="fill:#381905;" d="M275.158,155.263c-0.191,1.589-0.408,3.202-0.152,4.782c0.256,1.58,1.064,3.154,2.465,3.928
			c1.401,0.774,3.423,0.48,4.254-0.888c-0.391,1.775-2.661,2.666-4.361,2.022c-1.7-0.644-2.776-2.397-3.131-4.18
			c-0.355-1.783-0.114-3.623,0.089-5.429c0.21-1.872,0.135-3.55-0.11-5.397C275.946,149.166,275.242,154.565,275.158,155.263z"/>
		<path style="fill:#381905;" d="M253.891,135.281c-3.551-3.671-2.321-9.92,0.73-13.482c5.311-6.199,19.501-2.864,20.7,5.587
			c0.524,3.693-1.58,8.547-5.379,9.678"/>
		<g>
			<path style="fill:#8F3A26;" d="M238.189,194.363c-6.858,2.334-14.54,4.582-22.985,6.493c-9.408,2.129-18.158,3.477-26.033,4.314
				c-1.052-0.495-7.998-3.233-7.863-8.296c0.094-3.519-0.339-4.898,2.83-5.922l2.757-1.552l-2.757,1.552
				c0.191-0.062,1.606-0.647,1.803-0.694c0.175-0.042,0.343-0.584,0.522-0.615c8.704-1.574,17.849-3.482,27.368-5.798
				c10.072-2.451,19.565-5.115,28.45-7.882c1.291-0.322,4.079-0.843,7.095,0.33c5.113,1.989,8.644,7.707,7.652,11.882
				C255.831,193.227,247.648,197.593,238.189,194.363z"/>
			<g>
				<g>
					<g>
						<path style="fill:#8F3A26;" d="M134.306,201.702c1.824,0.203,39.425,4.309,54.74,3.476c4.204-0.228,7.473-3.74,7.402-7.949
							c-0.073-4.353-3.683-7.809-8.035-7.694c-4.556-0.078-8.446,0.109-11.484,0.347c-13.331,1.044-18.882,3.724-30.73,3.978
							c-4.451,0.096-8.237-0.185-11.084-0.506C134.846,196.136,134.576,198.919,134.306,201.702z"/>
					</g>
				</g>
			</g>
			<path style="fill:#8F3A26;" d="M127.574,192.46c-2.085-0.712-4.501-0.958-4.193,0.381c0.308,1.34,4.227,2.724,5.292,4.182
				c1.065,1.458,2.376,5.868,7.185,4.995c3.552-0.646,3.527-4.103,2.221-6.503c-1.306-2.399-7.293-6.519-9.57-6.977
				c-4.557-0.917-13.217-4.319-12.948-2.727c0.269,1.592,10.326,4.304,11.214,4.773C127.663,191.053,127.574,192.46,127.574,192.46z
				"/>
		</g>
		<g>
			<path style="fill:#8F3A26;" d="M296.896,197.046c6.858,2.334,14.54,4.582,22.985,6.493c9.408,2.129,18.158,3.477,26.033,4.314
				c1.053-0.496,7.999-3.233,7.863-8.296c-0.094-3.519,0.339-4.898-2.831-5.922l-2.757-1.552l2.757,1.552
				c-0.191-0.062-1.606-0.647-1.803-0.694c-0.175-0.042-0.343-0.584-0.522-0.615c-8.704-1.574-17.849-3.482-27.368-5.798
				c-10.072-2.451-19.565-5.116-28.451-7.882c-1.291-0.322-4.079-0.843-7.095,0.33c-5.113,1.989-8.644,7.707-7.652,11.882
				C279.254,195.91,287.437,200.276,296.896,197.046z"/>
			<g>
				<g>
					<g>
						<path style="fill:#8F3A26;" d="M400.779,204.384c-1.824,0.203-39.425,4.309-54.74,3.476c-4.204-0.228-7.473-3.74-7.402-7.949
							c0.073-4.353,3.683-7.809,8.035-7.694c4.556-0.079,8.446,0.109,11.484,0.347c13.331,1.044,18.882,3.724,30.73,3.979
							c4.451,0.096,8.237-0.184,11.084-0.506C400.239,198.819,400.509,201.602,400.779,204.384z"/>
					</g>
				</g>
			</g>
			<path style="fill:#8F3A26;" d="M407.512,195.142c2.085-0.712,4.501-0.959,4.193,0.381c-0.308,1.34-4.227,2.724-5.292,4.182
				c-1.065,1.457-2.376,5.868-7.185,4.994c-3.552-0.645-3.527-4.103-2.221-6.503c1.306-2.399,7.293-6.519,9.57-6.977
				c4.557-0.917,13.217-4.319,12.948-2.727c-0.269,1.592-10.326,4.304-11.214,4.773
				C407.422,193.735,407.512,195.142,407.512,195.142z"/>
		</g>
		<path style="fill:#8F3A26;" d="M228.299,276.768c7.906-0.295,19.137-0.284,32.499,1.229c20.815,2.357,27.097,3.007,32.965,1.894
			c2.971-0.564-5.428-36.988-5.688-41.623c-0.531-9.479,2.239-13.886,4.662-23.806c1.892-7.747,3.667-19.247,2.338-34.392
			c-15.851-1.673-31.703-3.346-47.554-5.019c-1.106-0.117-2.106,0.661-2.265,1.762c-1.157,8.009-6.457,14.426-4.264,36.822
			c1.959,20.005,2.955,18.591,2.244,23.301c-0.59,3.91-1.607,7.069-9.824,27.316C231.306,269.442,229.539,273.754,228.299,276.768z"
			/>
		<g>
			<g>
				<path style="fill:#8F3A26;" d="M255.828,271.734c2.447,3.815,5.716,9.082,9.351,15.485
					c7.493,13.196,11.874,22.991,17.434,35.518c1.446,3.258,5.293,12.023,8.476,23.948c2.809,10.528,2.521,13.849,0.735,16.004
					c-4.387,5.295-16.663,2.163-16.92,3.996c-0.101,0.721,1.71,1.839,2.09,1.503c1.624-1.437-20.34-31.545-35.151-51.848
					c0,0-17.694-24.256-14.12-35.518c0.563-1.773,1.708-2.989,1.708-2.989c0.414-0.478,0.978-0.908,1.962-1.472
					c5.311-3.043,11.27-3.848,11.27-3.848C245.905,271.98,250.394,271.504,255.828,271.734z"/>
			</g>
			<g>
				<path style="fill:#8F3A26;" d="M279.027,382.755c-3.69-9.429-5.007-18.933-4.394-23.992c0.957-7.897,11.521-9.751,14.81-5.425
					c8.05,9.018,21.761,58.859,26.193,68.229c2.196,4.642,3.953,5.687,0.569,8.415c-3.384,2.729-6.898,2.062-6.898,2.062
					c-3.01-1.425-3.753-5.042-5.912-8.476C301.236,420.133,282.717,392.185,279.027,382.755z"/>
			</g>
			<g>
				<path style="fill:#FFFFFF;" d="M317.518,424.604c0,0,2.694,2.147,2.106,4.972c-0.588,2.825-1.236,6.704,0.377,12.151
					c1.613,5.447-11.561,10.359-16.454,6.799c-3.712-2.701,0.484-14.173,0.484-14.173"/>
				<path style="fill:#381905;" d="M311.703,419.065c1.613,0.581,2.785,1.719,2.454,3.254c-0.11,0.513-0.566,2.19,0.02,2.536
					c1.29,0.762,1.218-3.006,0.99-3.572c-0.061-0.151-0.132-0.302-0.142-0.464c-0.01-0.162,0.061-0.342,0.212-0.405
					c0.183-0.076,0.384,0.049,0.538,0.175c1.768,1.442,2.11,3.076,2.259,5.233c0.166,2.395-1.294,5.32-0.652,8.837
					c0.642,3.518,1.982,7.809-6.92,10.166c-5.459,1.446-8.953-2.796-7.126-8.354c1.827-5.558,2.768-8.078,1.62-13.88
					C304.212,418.825,308.714,417.988,311.703,419.065z"/>
				<path style="fill:#FFFFFF;" d="M309.955,443.593c-2.763,0.293-5.154-0.139-5.806-1.64c-0.651-1.501,4.686-2.555,6.399-2.866
					c1.713-0.31,6.128,0.734,6.137,0.993C316.695,440.34,314.034,443.161,309.955,443.593z"/>
			</g>
		</g>
		<g>
			<g>
				<g>
					<path style="fill:#8F3A26;" d="M293.59,274.816c-1.013-1.56-2.44-2.428-2.44-2.428c-0.526-0.351-1.184-0.616-2.283-0.898
						c-5.928-1.523-11.887-0.718-11.888-0.718c-3.267,0.345-7.722,1.078-12.899,2.742c-1.346,4.327-3.1,10.273-4.905,17.412
						c-3.721,14.711-5.344,25.318-7.379,38.872c-0.529,3.525-1.912,12.997-1.814,25.339c0.086,10.896,1.246,14.022,3.539,15.625
						c4.488,3.138,12.368-0.197,15.766-0.829c1.576-8.094,12.443-36.831,20.118-57.125
						C289.405,312.807,300.025,284.725,293.59,274.816z"/>
				</g>
				<g>
					<path style="fill:#8F3A26;" d="M238.533,372.941c6.915-7.397,14.92-12.686,19.749-14.315
						c7.537-2.544,13.767,6.186,11.284,11.02c-4.662,11.153-43.71,45.025-50.251,53.066c-3.24,3.984-3.425,6.019-7.346,4.144
						c-3.922-1.876-4.836-5.333-4.836-5.333c-0.013-3.33,2.929-5.56,5.096-8.991C214.395,409.103,231.619,380.338,238.533,372.941z"
						/>
				</g>
			</g>
			<path style="fill:#528BDD;" d="M294.894,273.969c-1.173-1.805-2.759-2.802-2.881-2.875c-0.694-0.463-1.493-0.785-2.758-1.111
				c-6.152-1.58-12.228-0.787-12.437-0.758c-1.363,0.144-2.744,0.335-4.104,0.569c-3.048,0.523-6.113,1.277-9.109,2.239
				l-0.769,0.247l-0.24,0.771c-1.786,5.739-3.444,11.624-4.929,17.492c-3.817,15.095-5.482,26.183-7.409,39.023
				c-0.478,3.18-1.932,12.856-1.832,25.582c0.022,2.735,0.113,5.017,0.277,6.937c-9.169,7.066-16.284,13.55-21.427,18.575
				c0,0-4.492,4.389-11.181,13.764c-1.304,1.827-6.703,9.527-4.801,13.307c0.193,0.384,0.727,1.254,0.823,2.538
				c0.136,1.805-0.674,3.336-1.351,4.322c0.287,1.011,1.039,3.141,2.997,5.076c2.144,2.118,4.529,2.81,5.551,3.045
				c0.947-0.771,2.465-1.834,4.533-2.561c2.248-0.79,4.092-0.811,4.457-0.827c3.875-0.172,18.222-7.661,35.005-36.469
				c2.142-3.677,5.153-9.124,8.351-16.011c3.11-10.954,12.401-35.516,19.197-53.488
				C291.304,312.182,301.681,284.418,294.894,273.969z"/>
			<g>
				<path style="fill:#381905;" d="M217.385,447.768c1.003-0.602,2.348-1.636,2.699-3.205c0.392-1.755-1.201-2.818-2.471-6.596
					c-0.362-1.078-0.649-1.931-0.794-3.077c-0.61-4.833,2.043-9.036,0.96-9.743c-0.091-0.059-0.236-0.16-0.393-0.175
					c-0.545-0.053-1.105-0.121-1.737-0.277c-1.037-0.256-3.043-1.013-4.333-2.055c-0.883-0.713-3.334-2.692-3.156-5.052
					c0.111-1.47,1.185-2.313,0.834-2.722c-0.348-0.405-1.571,0.224-3.272,0.814c-1.938,0.673-3.606,0.988-4.756,1.149l-1.962,1.115
					c-0.423,1.343-0.846,2.686-1.27,4.029c0.808,1.465,1.616,2.93,2.424,4.395c1.566,3.238,3.132,6.476,4.698,9.714
					c1.195,1.833,2.39,3.666,3.584,5.499c1.83,1.674,3.119,4.923,4.95,6.598C214.541,448.566,216.283,448.169,217.385,447.768z"/>
				<path style="fill:#FFFFFF;" d="M214.227,449.061c2.503-0.003,3.833-1.739,3.833-1.739s-1.189,0.581-2.603,0.199
					c-2.313-0.625-3.324-1.489-5.71-4.412c-3.843-4.708-4.753-7.223-5.715-10.967c-0.4-1.556-0.49-2.792-1.448-4.67
					c-1.155-2.265-1.878-2.142-2.53-4.025c-0.103-0.298-1.288-3.873,0.54-6.204c0.143-0.182,0.276-0.321,0.371-0.414
					c-0.796,0.032-2.327,0.213-3.757,1.256c0,0-0.809,0.59-1.297,1.272c-1.597,2.232,2.167,7.642,5.862,14.771
					c2.632,5.078,4.195,9.033,8.009,12.718C210.756,447.786,212.243,449.063,214.227,449.061z"/>
				<path style="fill:#FFFFFF;" d="M216.285,446.437c0.351,0.031,2.328,0.162,3.152-1.097c1.014-1.55-0.316-4.301-1.605-4.509
					c-0.613-0.099-0.83,0.44-1.788,0.825c-2.341,0.941-4.432-0.914-4.881-0.35C210.601,442.011,212.906,446.14,216.285,446.437z"/>
			</g>
		</g>
		<path style="fill:#6BA0FE;" d="M313.398,414.039c-0.147-0.368-0.34-0.933-0.449-1.641c-0.35-2.276,0.468-4.121,0.572-4.39
			c3.91-10.12-1.727-11.869-29.488-85.9c0,0,0,0,0,0c-1.52-3.573-5.787-13.559-12.03-25.589c-1.655-3.189-3.456-6.515-5.473-10.067
			c-2.979-5.247-6.139-10.482-9.394-15.557l-0.436-0.68l-0.808-0.034c-4.558-0.193-9.094,0.076-13.438,0.793
			c0,0-0.191,0.026-0.538,0.085c-1.887,0.324-6.765,1.357-11.297,3.954c-1.115,0.638-1.823,1.177-2.322,1.755
			c-0.143,0.151-1.408,1.533-2.058,3.585c-3.769,11.876,13.604,35.888,14.346,36.905c11.111,15.23,26.279,36.025,32.399,45.965
			c1.49,8.315,3.211,15.153,4.594,20.098c0,0,8.502,30.4,17.285,33.01c0.238,0.071,1.657,0.684,3.251,1.929
			c0.881,0.689,1.526,1.356,1.94,1.821c1.341-0.291,2.793-0.689,4.321-1.235C308.176,417.488,311.181,415.668,313.398,414.039z"/>
		<path style="fill:#6BA0FE;" d="M227.245,292.496c-5.456-19.754,0.306-30.676,9.291-35.537c0,0,2.055,6.825,26.086,7.031
			c24.031,0.206,29.595-4.387,29.595-4.387s9.548,16.59,3.575,36.547L227.245,292.496z"/>
		<path style="fill:#F59620;" d="M243.136,174.783c-8.659-0.905-29.012,6.978-29.012,6.978s21.56,21.412,24.897,37.177l5.691-39.412
			l-1.576-3.96"/>
		<path style="fill:#F59620;" d="M237.572,175.575c0,0,2.143,45.951,1.228,50.706c-0.915,4.756-6.951,17.011-6.951,17.011
			s34.65,12.621,65.34,3.109c0,0-5.985-13.047-5.161-17.011c8.743-42.101,3.737-50.173,3.508-51.143
			C295.308,177.278,252.989,172.244,237.572,175.575z"/>
		<g>
			<g>
				<g>
					<polygon style="fill:#8F3A26;" points="261.957,181.182 271.419,180.971 273.522,160.509 265.284,162.286 					"/>
					<path style="fill:#381905;" d="M262.983,175.195l1.34-12.696l8.397-1.54C271.018,165.971,267.327,172.259,262.983,175.195z"/>
				</g>
				<path style="fill:#8F3A26;" d="M273.19,161.388c-0.491,0.741-1.227,1.741-2.256,2.793c-0.603,0.616-7.565,7.562-14.065,5.731
					c-5.551-1.563-7.516-8.613-8.628-12.601c-1.143-4.101-3.964-14.216,2.406-20.092c4.462-4.116,11.787-4.635,16.825-1.938
					C274.844,139.229,278.315,150.597,273.19,161.388z"/>
				<path style="fill:#8F3A26;" d="M272.586,152.452c-1.146,2.051-0.811,4.42,0.748,5.291c1.559,0.871,3.752-0.086,4.898-2.137
					c1.146-2.052,0.811-4.42-0.748-5.291C275.926,149.443,273.733,150.4,272.586,152.452z"/>
			</g>
		</g>
		<path style="fill:#8F3A26;" d="M277.888,180.428c1.404,4.356-4.34,10.928-10.469,12.863c-10.992,3.469-25.025-7.406-24-12.882
			c0.909-4.857,13.899-6.732,23.012-5.376C270.099,175.578,276.638,176.551,277.888,180.428z"/>
		<path style="fill:#381905;" d="M273.105,155.755c0,0,1.041-6.694-0.092-6.968c-1.133-0.274-2.239-1.571-2.65-2.257
			c-0.412-0.686-2.284-5.625-2.925-6.585c-0.642-0.96-10.545-2.058-10.545-2.058s6.481-2.022,7.817-3.341
			c1.336-1.318,2.728-3.107,2.728-3.107s14.861,0,10.268,18.598L273.105,155.755z"/>
		<path style="fill:#381905;" d="M265.258,130.891l-0.735,3.475c0,0-8.213,2.698-13.012,4.07c-0.802,0.229-3.264,4.915-4.38,14.249
			c-3.183-5.27-2.94-11.896,0.586-16.718C251.623,130.627,258.824,128.499,265.258,130.891z"/>
		<path style="fill:#381905;" d="M276.342,157.217c-0.322,3.557-0.103,7.215,1.135,10.565c0.579,1.566,1.375,3.053,1.836,4.658
			c0.461,1.605,0.555,3.409-0.24,4.877c0.286-1.551-0.046-3.155-0.572-4.641s-1.244-2.9-1.767-4.388
			c-1.386-3.942-1.35-8.234-1.043-12.401c0.308-4.167,0.871-8.348,0.486-12.509c0.003,0.028,1.132,0.844,1.26,1.026
			c0.289,0.41,0.555,0.935,0.702,1.417c0.277,0.911-0.007,1.789-0.219,2.686C277.239,151.378,276.609,154.272,276.342,157.217z"/>
		<path style="fill:#381905;" d="M280.608,140.926c0.44,3.897-1.586,7.856-4.743,10.183c2.283-2.501,4.004-5.697,4.007-9.084
			s-2.042-6.887-5.28-7.879c-0.771-0.236-2.302-0.34-2.675-1.146c1.562-0.672,4.177,0.855,5.329,1.804
			C279.082,136.316,280.34,138.556,280.608,140.926z"/>
		<path style="fill:#381905;" d="M258.001,120.073c-3.059,0.584-5.773,2.744-7.029,5.594c-1.256,2.85-1.02,6.31,0.613,8.963
			c-0.718-2.627-0.986-5.474-0.089-8.045c0.897-2.571,3.156-4.787,5.868-5.031"/>
		<path style="fill:#381905;" d="M272.542,123.586c1.958,2.089,3.244,4.797,3.625,7.635c0.381,2.837-0.145,5.789-1.482,8.321
			c1.566-2.253,2.343-5.043,2.169-7.781c-0.174-2.738-1.3-5.407-3.138-7.443"/>
		
			<path style="fill:none;stroke:#381905;stroke-width:0.4924;stroke-linecap:round;stroke-linejoin:round;stroke-miterlimit:10;" d="
			M250.402,153.51c0.19,0.684,0.826,1.221,1.533,1.292c0.706,0.071,1.437-0.329,1.759-0.962"/>
		
			<path style="fill:none;stroke:#381905;stroke-width:0.4924;stroke-linecap:round;stroke-linejoin:round;stroke-miterlimit:10;" d="
			M260.903,153.273c0.347,0.855,1.211,1.475,2.133,1.531c0.921,0.055,1.854-0.457,2.3-1.265"/>
		<path style="fill:#381905;" d="M250.067,148.508c1.039-0.555,2.268-0.745,3.426-0.53c0.26,0.048,0.535,0.128,0.698,0.337
			c0.163,0.208,0.132,0.577-0.115,0.672c-0.122,0.047-0.259,0.016-0.387-0.01c-1.101-0.224-2.276-0.068-3.28,0.437
			c-0.508,0.256-0.971,0.6-1.366,1.01c-0.207,0.215-0.396,0.448-0.563,0.697c-0.074,0.111-0.248,0.571-0.369,0.607
			c-0.256,0.077-0.219-0.492-0.209-0.652c0.031-0.502,0.26-0.865,0.572-1.248C248.91,149.288,249.454,148.835,250.067,148.508z"/>
		<path style="fill:#381905;" d="M266.794,148.04c-1.039-0.555-2.268-0.745-3.426-0.53c-0.26,0.048-0.535,0.128-0.698,0.337
			c-0.163,0.208-0.132,0.577,0.115,0.672c0.122,0.047,0.259,0.016,0.387-0.01c1.101-0.224,2.276-0.068,3.28,0.437
			c0.508,0.256,0.971,0.6,1.366,1.01c0.207,0.215,0.396,0.448,0.563,0.697c0.074,0.111,0.248,0.571,0.369,0.607
			c0.255,0.077,0.219-0.492,0.209-0.652c-0.031-0.501-0.26-0.865-0.572-1.248C267.951,148.82,267.406,148.367,266.794,148.04z"/>
		<path style="fill:#381905;" d="M257.007,161.53c0.279,0.046,0.552,0.153,0.835,0.138c0.368-0.02,0.695-0.244,1.059-0.302
			c0.673-0.108,1.268,0.338,1.85,0.6c0.373,0.167,1.479,0.12,1.143,0.772c-0.216,0.419-0.836,0.796-1.204,1.072
			c-0.449,0.337-0.934,0.633-1.469,0.813c-0.985,0.333-2.208,0.19-2.864-0.617c-0.187-0.231-0.326-0.509-0.568-0.681
			c-0.154-0.109-0.338-0.166-0.504-0.256c-0.597-0.323-0.272-0.772,0.125-1.072C255.875,161.645,256.416,161.433,257.007,161.53z"/>
		
			<path style="fill:none;stroke:#381905;stroke-width:0.4924;stroke-linecap:round;stroke-linejoin:round;stroke-miterlimit:10;" d="
			M257.718,153.298c-0.056,1.129-0.113,2.257-0.169,3.386c-0.536-0.083-1-0.407-1.503-0.608c-0.504-0.201-1.148-0.252-1.526,0.137
			c-0.403,0.415-0.293,1.107-0.031,1.623c0.585,1.154,1.82,1.95,3.112,2.007"/>
		<path style="fill:#528BDD;" d="M276.077,290.828c-3.268-0.622-6.41-1.704-9.593-2.644c0.737,1.501,2.264,3.033,3.18,4.417
			c1.157,1.747,2.232,3.548,3.218,5.396c1.733-2.399,3.653-4.662,5.736-6.764C277.769,291.114,276.921,290.989,276.077,290.828z"/>
	</g>
</g>
</svg>
