<?xml version="1.0" encoding="utf-8" ?><svg xmlns="http://www.w3.org/2000/svg" xmlns:xlink="http://www.w3.org/1999/xlink" width="12199" height="6099" viewBox="0 0 12199 6099"><path fill="#230F26" transform="matrix(5.84273 -0.215265 0.227622 5.52553 0 440.862)" d="M1052.66 160.492C1037.06 155.673 1017.42 146.441 1019.68 125.629C1022.33 101.141 1058.19 99.6652 1072.49 89.0512C1117.49 55.6698 1157.28 42.5137 1193.18 97.1785C1201.75 110.233 1196.13 148.016 1196.77 167.755C1201.9 174.12 1205.75 178.918 1212.29 184.025C1234.79 175.334 1254.83 167.142 1278.96 163.426C1305.83 159.287 1306.14 164.724 1308.26 189.525C1326.39 217.175 1335.41 215.532 1325.02 252.224C1356.66 282.404 1381.08 324.211 1401.25 362.469C1442.39 345.488 1485.37 327.261 1505.85 381.608C1531.61 449.95 1535.04 526.242 1505.5 594.218C1487.51 635.647 1475.06 644.074 1447.12 673.658C1451.66 684.653 1458.33 710.854 1461.9 723.215L1489.84 819.274L1516.22 910.252C1519.61 921.735 1528.76 950.03 1530.44 960.845L1702.73 961.044C1696.69 940.232 1691.57 918.866 1685.81 897.919C1677.38 867.296 1667.91 834.51 1661.58 803.39C1666.54 802.803 1671.43 802.124 1676.43 802.052C1638.36 781.679 1605.16 762.451 1590.95 717.929C1589.29 712.736 1588.02 704.853 1590.3 699.663C1598.22 691.378 1607.58 690.668 1618.5 690.345C1650.33 689.402 1677.61 701.5 1703.56 719.126C1701.09 672.266 1703.35 626.015 1724.75 582.966C1732.12 569.114 1741.35 547.348 1759.39 546.091C1769.9 545.359 1777.19 558.033 1782.36 565.738C1816.56 616.751 1817.94 680.025 1807.3 738.035C1841.86 717.528 1882.15 699.616 1923.17 707.676C1941.36 711.25 1942.44 727.311 1933.73 740.996C1915.34 769.925 1888.67 787.487 1858.69 802.459C1843.89 851.781 1830.06 902.505 1817.56 952.513C1816.83 955.437 1816.21 957.804 1815.17 960.661C1817.33 960.721 1822.06 960.749 1823.92 960.845C1844.58 961.914 1982.36 957.143 1988.94 963.377L1988.96 965.211C1986.98 967.176 1984.85 968.067 1982.07 968.081C1958.91 968.191 1935.55 968.06 1912.39 968.068L1768.75 968.144L1324.53 968.217L77.3323 968.966C72.6817 968.952 62.9081 968.58 59.9693 964.657C63.4654 961.145 72.6986 960.865 77.714 960.858L263.434 961.007L264.123 500.793L201.874 500.823C201.817 489.991 201.908 478.792 201.577 467.995C223.031 468.017 248.492 468.691 269.626 467.978L269.337 466.001C267.814 464.195 268.279 464.937 267.777 462.498C270.423 459.777 269.991 460.512 274.032 459.332C274.306 456.336 273.824 447.383 273.728 443.96C268.965 441.421 270.528 442.792 267.499 438.2L266.665 437.383C262.916 435.365 261.956 434.939 261.383 430.916C263.765 428.891 263.04 429.487 266.74 429.313C270.76 429.234 273.185 429.224 277.136 428.531L275.066 427.721L274.658 426.115C279.158 412.883 285.365 427.91 281.155 399.689L277.312 395.874L274.724 393.627L274.828 391.628C276.685 390.111 279.605 389.165 281.991 389.165C332.068 389.179 382.875 388.485 432.908 389.439C430.685 377.698 426.207 356.725 426.189 345.503C445.137 341.732 487.404 342.726 507.216 343.932L506.417 364.555C508.897 365.546 512.146 366.623 514.421 367.881C541.873 383.072 540.191 411.282 518.098 429.289C527.301 433.657 529.417 435.704 534.632 444.68C534.255 455.372 533.879 457.243 530.893 467.871L631.385 468.054C619.422 446.469 603.138 422.157 589.613 401.495L544.619 332.395C535.097 317.962 525.034 303.833 515.976 289.107C509.241 278.157 509.244 272.307 523.897 272.245C573.81 272.034 623.75 272.406 673.669 272.041C686.923 271.944 701.649 271.504 714.686 273.696C719.817 279.699 724.099 286.33 728.523 292.858C745.235 317.52 760.936 342.82 777.024 367.889L809.548 418.832C814.889 427.287 821.849 437.192 826.089 446.008C839.719 446.12 853.241 446.158 866.858 445.344C871.083 436.47 872.389 433.571 877.677 425.651C866.421 431.841 852.003 440.197 838.588 437.275C834.533 436.391 833.902 431.035 835.857 427.815C843.968 414.457 862.514 408.657 876.393 403.412C903.517 393.975 930.659 401.112 957.916 405.383C969.15 407.144 981.258 408.412 992.718 409.774C1008.35 397.024 1028.39 399.102 1047.49 396.501C1069.86 393.456 1092.74 391.707 1114.91 387.346C1123.68 372.235 1143.49 336.868 1150.22 320.92C1148.02 300.986 1141.68 273.107 1141.46 254.131C1145.38 247.599 1146.82 244.836 1152.37 239.446C1146.68 234.251 1142.44 230.38 1136.25 225.837C1097.12 257.038 1098.9 234.844 1076.72 207.386C1055.03 205.003 1061.65 198.115 1064.98 182.373C1062.65 174.736 1057.41 166.896 1052.66 160.492ZM311.747 500.589L312.057 961.004L468.5 960.989L631.98 961.046L631.879 500.444L475.821 500.5L311.747 500.589ZM1192.7 174.099C1177.64 174.092 1162.35 174.227 1147.3 174.038C1155.12 171.536 1157.2 171.891 1161.95 164.453C1168.02 154.958 1160.27 141.678 1149.26 144.264C1144.89 147.053 1144.03 150.641 1141.04 153.669C1133.51 161.29 1113.53 156.907 1104.1 155.45C1085.26 152.542 1069.8 138.431 1055.76 131.978C1054.12 152.84 1067.33 165.809 1071.86 182.24C1070.23 187.181 1066.63 195.451 1068.84 200.05C1072.68 201.883 1081.81 201.489 1082.41 202.84C1091.31 223.009 1095.78 199.925 1107.09 203.156C1109.69 208.418 1096.49 215.106 1092.24 217.486C1114.7 264.443 1141.83 204.476 1157.3 189.276L1158.78 190.237C1155.23 203.407 1149.3 211.885 1140.63 222.068C1144.14 224.531 1149.31 227.93 1152.41 230.681L1166.15 242.022C1177.44 221.978 1188.51 204.176 1206.29 188.885L1192.7 174.099ZM1080.9 550.323C1081.05 533.698 1081.37 516.797 1081.33 500.198C949.063 499.46 814.34 498.868 682.154 500.493C679.891 504.311 680.868 523.51 680.928 529.046C682.475 673.019 678.882 817.306 681.815 961.263C706.704 961.293 732.983 960.889 757.754 961.421C760.858 933.07 777.883 929.36 801.088 921.86C825.931 913.83 853.173 908.408 876.498 896.777C882.892 893.588 905.794 874.793 906.554 868.553C902.925 866.668 896.972 865.944 892.786 865.205C901.194 849.211 909.044 821.083 917.019 803.08C930.111 765.437 947.602 724.962 964.328 688.742C966.637 683.741 974.457 667.285 977.081 663.216C967.244 642.379 960.059 628.304 968.393 604.515C982.251 564.958 1044.95 556.625 1080.9 550.323ZM1159.19 960.72L1183.42 960.654C1196.22 924.033 1223.85 927.437 1250.32 911.225C1259.38 894.772 1267.13 882.773 1266.94 863.542C1266.9 860.495 1268.35 859.319 1267.96 855.74C1264.49 853.138 1261.14 850.809 1257.57 848.354C1249.23 852.697 1239.65 859.084 1231.57 864.185C1224.14 859.786 1195.8 837.705 1187.93 831.486C1187.41 830.792 1183.54 826.901 1182.12 825.13C1176.19 822.834 1139.82 794.144 1130.07 787.676C1130.2 844.877 1129.5 903.71 1130.46 960.767C1136.13 960.747 1145.64 961.009 1151.01 960.572C1160.14 921.448 1170.01 890.106 1176.41 848.788C1182.06 853.282 1178.94 858.65 1180.01 865.601C1180.09 869.608 1176.91 883.431 1176.04 887.969C1171.34 912.463 1164.99 936.487 1159.19 960.72ZM1343.5 961.029L1447.07 960.997L1392.57 774.941C1383.11 741.948 1374.88 709.775 1364.4 677.052L1185.7 676.989C1194.16 685.873 1207.47 697.238 1216.79 705.624L1283.72 765.271C1294.98 775.471 1309.83 788.356 1319.4 799.868C1319.87 806.025 1320.96 811.051 1325.69 815.59C1330.67 820.377 1337.49 817.578 1341.56 819.478C1360.53 828.335 1386.73 843.122 1398.08 860.486C1391 871.397 1378.34 882.678 1368.69 891.718C1344.12 914.729 1319.89 938.358 1295.04 961.044L1343.5 961.029ZM875.671 445.01C883.215 439.699 889.862 432.594 897.654 429.493C921.964 427.212 925.999 439.528 947.41 444.33C957.4 446.57 972.909 447.116 983.938 448.771C982.441 433.796 983.067 429.516 988.355 415.348C971.036 413.187 910.342 403.332 898.663 405.329C887.502 406.946 845.475 417.283 842.501 429.069L843.054 430.667C859.06 434.23 890.521 405.217 905.478 417.653C901.053 420.668 897.975 420.729 893.441 422.735C884.845 426.536 878.668 436.563 875.671 445.01ZM917.115 438.654C912.41 437.035 907.71 435.099 902.76 434.918C895.61 437.457 890.281 441.01 884.38 445.782C888.113 445.784 894.321 445.991 897.844 445.743C905.001 440.248 908.427 440.063 917.115 438.654ZM1130.59 500.287C1127.57 508.009 1128.68 530.053 1128.61 539.497C1155.14 533.537 1184.66 527.862 1211.49 522.766C1216.97 521.742 1225.89 520.364 1231.02 519.04C1229.29 512.856 1226.73 505.839 1225.24 500.057L1130.59 500.287ZM1454.89 960.787L1522.46 960.858C1517.74 940.666 1511.67 919.497 1505.72 899.56C1490.46 848.389 1476.21 796.893 1461.37 745.625L1448.12 700.675C1446.21 694.341 1442.44 683.254 1441.12 677.112C1419.93 676.938 1392.89 676.31 1371.93 677.156C1374.45 684.669 1376.44 692.25 1378.74 699.811C1405.12 786.168 1426.82 875.012 1454.89 960.787ZM1069.62 961.116C1072.83 948.115 1082.52 910.529 1081.16 900.368C1078.37 879.676 1085.19 757.148 1080.63 747.026C1079.3 746.204 1078.37 745.403 1076.84 745.382C1061.31 768.268 1046.16 797.379 1032.74 821.991C1021.37 842.843 1006.45 868.431 996.845 889.578C991.303 888.108 986.02 886.801 980.634 884.803C989.29 912.792 991.853 924.307 992.954 954.248L993.597 960.141C997.331 962.022 1060.41 961.077 1069.62 961.116Z"/><path fill="#230F26" transform="matrix(5.84273 -0.215265 0.227622 5.52553 0 440.862)" d="M281.155 399.689C293.428 396.859 373.509 396.954 391.124 400.399C392.336 400.637 394.65 404.549 394.959 406.754C395.961 413.898 392.677 420.826 389.359 426.859L312.863 426.942C306.079 426.946 280.594 426.597 275.066 427.721L274.658 426.115C279.158 412.883 285.365 427.91 281.155 399.689Z"/><path fill="#FDFBF7" transform="matrix(5.84273 -0.215265 0.227622 5.52553 0 440.862)" d="M285.834 403.073C316.442 402.951 347.08 402.602 377.676 403.334C391.076 403.654 389.169 408.873 387.606 419.855C359.486 422.312 315.509 420.937 285.93 420.831L285.834 403.073Z"/><path fill="#FDFBF7" transform="matrix(5.84273 -0.215265 0.227622 5.52553 0 440.862)" d="M273.728 443.96C298.985 444.012 356.448 442.886 383.958 444.896C384.668 445.603 385.285 446.216 385.806 446.736C389.074 458.187 380.674 461.7 372.173 460.54C362.112 459.168 276.629 460.798 274.032 459.332C274.306 456.336 273.824 447.383 273.728 443.96Z"/><path fill="#230F26" transform="matrix(5.84273 -0.215265 0.227622 5.52553 0 440.862)" d="M267.499 438.2C276.044 439.071 289.634 437.965 298.817 438.24C327.816 439.108 357.692 437.788 386.497 438.258C394.162 449.048 394.881 456.251 385.618 466.571C374.013 465.471 355.23 465.96 343.034 465.96L269.337 466.001C267.814 464.195 268.279 464.937 267.777 462.498C270.423 459.777 269.991 460.512 274.032 459.332C276.629 460.798 362.112 459.168 372.173 460.54C380.674 461.7 389.074 458.187 385.806 446.736C385.285 446.216 384.668 445.603 383.958 444.896C356.448 442.886 298.985 444.012 273.728 443.96C268.965 441.421 270.528 442.792 267.499 438.2Z"/><path fill="#F09FA5" transform="matrix(5.84273 -0.215265 0.227622 5.52553 0 440.862)" d="M277.312 395.874C316.696 396.497 355.508 395.833 394.8 395.892C398.528 402.756 402.586 410.907 400.198 418.918C399.13 422.502 396.381 426.336 392.967 428.02C386.193 431.36 280.094 430.727 266.74 429.313C270.76 429.234 273.185 429.224 277.136 428.531L275.066 427.721C280.594 426.597 306.079 426.946 312.863 426.942L389.359 426.859C392.677 420.826 395.961 413.898 394.959 406.754C394.65 404.549 392.336 400.637 391.124 400.399C373.509 396.954 293.428 396.859 281.155 399.689L277.312 395.874Z"/><path fill="#F09FA5" transform="matrix(5.84273 -0.215265 0.227622 5.52553 0 440.862)" d="M269.337 466.001L343.034 465.96C355.23 465.96 374.013 465.471 385.618 466.571L391.019 468.417C355.859 470.245 306.076 468.206 269.626 467.978L269.337 466.001Z"/><path fill="#F09FA5" transform="matrix(5.84273 -0.215265 0.227622 5.52553 0 440.862)" d="M266.665 437.383C278.75 434.944 290.653 436.341 302.537 435.89C328.517 434.905 363.906 437.928 388.852 435.536L386.497 438.258C357.692 437.788 327.816 439.108 298.817 438.24C289.634 437.965 276.044 439.071 267.499 438.2L266.665 437.383Z"/><path fill="#FDFBF7" transform="matrix(5.84273 -0.215265 0.227622 5.52553 0 440.862)" d="M388.852 435.536C395.099 440.85 397.036 444.525 398.014 452.818C398.543 457.305 395.723 467.158 391.019 468.417L385.618 466.571C394.881 456.251 394.162 449.048 386.497 438.258L388.852 435.536Z"/><path fill="#FBEAC3" transform="matrix(5.84273 -0.215265 0.227622 5.52553 0 440.862)" d="M1256.36 215.074C1260.84 215.287 1267.8 218.966 1271.82 221.122C1367.54 272.476 1419.67 408.839 1449.04 507.598C1430.96 539.152 1419.87 551.545 1395.94 578.545C1365.72 583.196 1334.26 587.722 1303.91 591.4C1301.43 582.541 1297.03 570.49 1293.43 561.997C1270.96 509.014 1253.86 448.952 1229.07 397.437C1238.64 383.294 1248.58 365.005 1257.19 349.944C1261.91 352.198 1266.68 355.159 1271.39 351.988L1270.95 349.904C1268.29 346.869 1264.57 345.952 1260.76 344.602C1263.94 339.637 1271.68 328.727 1271.25 323.816L1269.86 322.664C1263.05 324.475 1250.83 347.684 1246.9 354.509C1227.6 389.773 1199.15 432.748 1177.76 467.956C1131.02 466.497 1083.82 465.445 1037.06 465.071C1019.04 443.489 1025.73 424.445 1040.76 404.333C1065.92 400.877 1092.84 398.497 1117.34 392.635C1124.06 400.177 1146.08 425.952 1157.54 416.243C1163.22 401.108 1134.94 388.787 1124.53 383.867C1139.55 357.23 1152.83 330.159 1165.41 302.299C1175.35 280.295 1179.8 255.834 1198.66 239.315L1200.01 239.736C1249.77 255.457 1254.92 310.428 1263 312.861L1264.64 311.027C1265.19 308.543 1265.11 306.31 1264.29 303.923C1252.02 268.205 1239.49 251.491 1207.36 234.063C1225.15 224.486 1237.39 220.556 1256.36 215.074Z"/><path fill="#230F26" transform="matrix(5.84273 -0.215265 0.227622 5.52553 0 440.862)" d="M1288.83 459.446C1312.82 466.033 1358.78 506.2 1382.87 519.177C1384.25 519.919 1383.55 523.431 1383.43 524.985C1367.74 518.81 1307.9 476.983 1290.52 466.233C1288.51 464.989 1288.9 461.837 1288.83 459.446Z"/><path fill="#F09FA5" transform="matrix(5.84273 -0.215265 0.227622 5.52553 0 440.862)" d="M920.123 831.083C918.297 829.709 916.077 828.656 916.288 826.544C917.489 814.481 927.807 794.395 932.169 782.85C948.02 741.013 966.224 699.706 985.486 659.333C994.799 639.815 1006.96 615.75 1020.39 598.985C1035.69 579.909 1071.98 574.853 1094.67 569.264C1123.92 562.061 1153.63 556.081 1183.06 549.714C1200.61 545.968 1220.01 543.084 1237.11 538.408C1243.61 557.716 1250.02 577.33 1256.87 596.493C1204.29 605.379 1132.06 614.636 1082.66 631.729C1089.83 642.831 1101.75 660.461 1107.45 671.943C1098.64 662.869 1084.54 644.164 1075.29 638.387L1073.62 638.416C1074.5 646.789 1094.88 669.179 1101.11 675.999C1095.26 705.155 1042.23 787.914 1027.16 817.725C1026.42 819.188 1008.99 850.794 1008.74 851.094L1005.62 857.224L992.433 880.903C961.535 872.41 934.383 865.795 902.998 859.937C906.22 851.435 909.412 842.865 912.756 834.416C917.289 833.272 917.557 833.998 920.123 831.083Z"/><path fill="#F09FA5" transform="matrix(5.84273 -0.215265 0.227622 5.52553 0 440.862)" d="M912.756 834.416C918.329 836.729 926.11 838.198 932.07 839.655C956.545 845.642 981.229 850.9 1005.62 857.224L992.433 880.903C961.535 872.41 934.383 865.795 902.998 859.937C906.22 851.435 909.412 842.865 912.756 834.416Z"/><path fill="#230F26" transform="matrix(5.84273 -0.215265 0.227622 5.52553 0 440.862)" d="M974.5 842.787C985.301 822.622 1065.03 670.589 1073.47 664.647L1074.56 665.4C1074.5 676.164 1048.67 720.423 1042.18 732.412L981.027 844.256C990.068 846.531 999.671 849.134 1008.74 851.094L1005.62 857.224C981.229 850.9 956.545 845.642 932.07 839.655C926.11 838.198 918.329 836.729 912.756 834.416C917.289 833.272 917.557 833.998 920.123 831.083C925.35 830.281 966.057 841.01 974.5 842.787Z"/><path fill="#9ED0C9" transform="matrix(5.84273 -0.215265 0.227622 5.52553 0 440.862)" d="M517.118 278.927L698.871 278.926C712.345 296.727 729.749 325.679 742.221 345.111L819.222 465.07L640.338 465.169C627.148 450.218 602.338 409.251 590.544 390.915L517.118 278.927Z"/><path fill="#9ED0C9" transform="matrix(5.84273 -0.215265 0.227622 5.52553 0 440.862)" d="M1455.33 353.364C1483.61 348.841 1493.26 366.929 1501.51 389.648C1515.24 427.476 1520.32 464.111 1519.18 504.009C1517.22 573.127 1489.71 623.827 1440.28 670.297C1417.28 669.853 1393.87 670.029 1370.84 669.986C1369.37 664.409 1368.71 659.277 1362.84 657.231L1361.3 658.615C1359.98 662.351 1361.48 666.133 1362.53 670.002L1255.74 670.144C1240.53 670.216 1179.58 672.238 1170.74 664.457L1170.78 663.174C1176.24 659.587 1220.18 658.058 1229.75 657.473C1235.12 656.889 1244.7 657.011 1250.4 656.93C1242.57 659.73 1232.33 661.426 1224.02 662.111C1218.55 662.561 1211.55 662.191 1206.55 663.671L1206.47 665.09C1207.5 665.956 1209.23 667.083 1210.59 666.994C1270.13 663.129 1332.97 643.249 1378.27 604.2C1435.42 554.799 1480.54 485.362 1488.19 408.963C1493.12 361.67 1475.28 347.452 1431.6 365.455C1426.71 367.471 1409.97 376.296 1405.74 371.253C1412.51 360.419 1443.27 355.043 1455.33 353.364Z"/><path fill="#9ED0C9" transform="matrix(5.84273 -0.215265 0.227622 5.52553 0 440.862)" d="M638.839 500.71L673.696 500.707L673.163 960.725C662.218 961.626 650.221 961.259 639.168 961.166L638.839 500.71Z"/><path fill="#9ED0C9" transform="matrix(5.84273 -0.215265 0.227622 5.52553 0 440.862)" d="M271.169 500.931L304.699 500.999L304.857 841.174L304.946 919.968C304.976 926.804 305.558 954.845 304.302 960.263L302.25 961.07L271.49 961.165L271.169 500.931Z"/><path fill="#F09FA5" transform="matrix(5.84273 -0.215265 0.227622 5.52553 0 440.862)" d="M1116.26 670.879C1114.26 670.51 1247.79 788.862 1257.46 797.935C1243.19 807.483 1229.41 816.203 1214.8 825.239L1201.89 833.797C1163.88 802.399 1118.88 769.468 1079.43 738.561C1091.65 717.036 1102.34 700.083 1108.03 675.63L1116.26 670.879Z"/><path fill="#FBEAC3" transform="matrix(5.84273 -0.215265 0.227622 5.52553 0 440.862)" d="M672.06 474.941L1183.07 474.833L1183.07 494L841.398 493.986C789.043 493.988 736.686 493.93 684.334 494.213C669.6 494.292 671.656 486.47 672.06 474.941Z"/><path fill="#9ED0C9" transform="matrix(5.84273 -0.215265 0.227622 5.52553 0 440.862)" d="M1681.09 852.732L1836.85 852.51C1831.44 872.678 1826.33 892.029 1820.58 912.156L1817.3 923.316C1781.32 934.313 1770.96 926.838 1735.19 918.499C1725.11 916.149 1708.62 915.51 1697.87 915.138C1691.76 894.047 1686.5 873.991 1681.09 852.732Z"/><path fill="#795A69" transform="matrix(5.84273 -0.215265 0.227622 5.52553 0 440.862)" d="M1129.91 66.0813L1131.85 66.0788C1150.01 66.2258 1163.54 73.6777 1176.4 86.0733C1196.84 105.78 1190.14 139.75 1189.96 167.001L1170.85 166.936C1172.52 153.332 1167.86 134.065 1149.6 136.028C1142.22 136.821 1138.04 143.785 1134.34 149.613C1115.42 152.153 1104.98 148.388 1087.56 142.003C1077.74 136.18 1049.1 115.931 1038.95 125.941C1037.67 129.661 1037.73 128.126 1038.51 131.796C1040.88 134.957 1043.53 135.957 1047.05 137.76L1050.8 153.641C1041.86 149.522 1031.82 144.003 1027.19 134.773C1025.99 133.143 1025 125.834 1026.16 124.301C1036.7 110.365 1059.68 103.482 1074.47 95.3296C1092.75 85.2517 1110.38 72.045 1129.91 66.0813Z"/><path fill="#230F26" transform="matrix(5.84273 -0.215265 0.227622 5.52553 0 440.862)" d="M1069.59 110.638C1081.9 111.195 1108.22 126.849 1124.52 126.048C1139.06 125.333 1153.61 115.4 1167.56 116.509C1168.18 116.558 1168.74 118.202 1169.15 119.033C1140.69 134.248 1107.18 136.251 1078.23 119.558C1073.55 116.863 1071.98 115.498 1069.59 110.638Z"/><path fill="#FBEAC3" transform="matrix(5.84273 -0.215265 0.227622 5.52553 0 440.862)" d="M208.166 474.928L666.952 474.834C666.546 482.193 666.726 486.618 667.212 494L208.166 494.002L208.166 474.928Z"/><path fill="#9ED0C9" transform="matrix(5.84273 -0.215265 0.227622 5.52553 0 440.862)" d="M1761.25 553.312C1783.85 568.748 1798.44 612.984 1802.58 638.655C1811.78 695.554 1805.31 754.673 1772.02 802.993L1759.03 803.001L1759.01 780.054L1759.21 721.938C1773.71 709.636 1792.97 697.584 1802.07 681.129C1788.8 687.155 1771.05 703.694 1759.73 713.522L1761.25 553.312Z"/><path fill="#230F26" transform="matrix(5.84273 -0.215265 0.227622 5.52553 0 440.862)" d="M1081.79 167.185C1085.09 166.154 1088.6 167.984 1089.65 171.279C1090.7 174.574 1088.89 178.098 1085.6 179.165C1082.28 180.241 1078.73 178.413 1077.67 175.092C1076.61 171.77 1078.46 168.223 1081.79 167.185Z"/><path fill="#230F26" transform="matrix(5.84273 -0.215265 0.227622 5.52553 0 440.862)" d="M1075.3 149.831C1078.5 150.45 1082.83 150.581 1083.51 154.12C1081.92 156.728 1078.35 157.255 1075.28 158.148C1071.32 160.123 1072.1 160.519 1068.49 159.888L1067.4 157.856C1068.65 152.069 1070.18 151.88 1075.3 149.831Z"/><path fill="#9ED0C9" transform="matrix(5.84273 -0.215265 0.227622 5.52553 0 440.862)" d="M1752.18 555.61C1753.04 555.859 1753.24 556.247 1754.02 556.93C1755.05 591.981 1753.75 631.35 1753.01 666.488C1747.25 662.411 1727.3 646.965 1721.36 648.191C1722.27 654.944 1746.88 670.935 1753.05 675.303L1752 788.807C1752.18 792.652 1752.69 797.434 1751.65 801.028C1741.02 811.321 1730.24 785.804 1726.96 778.787C1699.9 720.989 1702.62 601.988 1752.18 555.61Z"/><path fill="#F09FA5" transform="matrix(5.84273 -0.215265 0.227622 5.52553 0 440.862)" d="M1255 604.408L1256.85 604.467C1261.3 607.411 1265.38 621.537 1267.36 627.247C1289.47 626.286 1326.15 620.643 1348.94 617.589C1288.84 654.577 1251.52 650.932 1182.75 654.117C1157.57 655.974 1136.72 657.678 1112.45 665.761C1106.32 657.536 1098.18 644.033 1092.46 635.076C1140.65 620.579 1204.53 611.414 1255 604.408Z"/><path fill="#9ED0C9" transform="matrix(5.84273 -0.215265 0.227622 5.52553 0 440.862)" d="M1457.65 365.197C1510.91 361.142 1464.99 474.362 1453.96 498.051C1452.26 493.878 1450.66 488.451 1449.25 484.085C1437.3 447.344 1424.61 417.144 1409.9 381.239C1426.98 373.994 1439.38 369.17 1457.65 365.197Z"/><defs><linearGradient id="gradient_0" gradientUnits="userSpaceOnUse" x1="1367.6864" y1="500.10104" x2="1228.2141" y2="524.1264"><stop offset="0" stop-color="#FBEBB3"/><stop offset="1" stop-color="#FFFCFC"/></linearGradient></defs><path fill="url(#gradient_0)" transform="matrix(5.84273 -0.215265 0.227622 5.52553 0 440.862)" d="M1217.16 416.836C1220.91 422.06 1234.57 457.351 1237.73 465.51C1255.04 510.228 1272.41 555.287 1289 600.272C1317.45 597.996 1359.92 591.415 1388.48 586.267C1382.84 590.952 1377.13 596.003 1371.55 600.8L1359.11 610.589C1335.97 611.175 1295.62 616.865 1271.91 619.951C1258.54 586.446 1249.68 554.202 1238.7 520.045C1228.64 488.751 1218.72 460.117 1210.16 428.232L1217.16 416.836Z"/><path fill="#F09FA5" transform="matrix(5.84273 -0.215265 0.227622 5.52553 0 440.862)" d="M1157.06 663.488C1163.99 665.316 1273.78 766.065 1288.3 779.178C1282.72 782.743 1266.75 794.731 1261.37 791.948C1231.79 766.764 1203.33 739.87 1173.67 714.719C1156.44 700.106 1139.81 685.638 1124.74 668.747C1135.16 666.396 1146.45 664.623 1157.06 663.488Z"/><path fill="#9ED0C9" transform="matrix(5.84273 -0.215265 0.227622 5.52553 0 440.862)" d="M1122.42 781.724C1124.73 793.807 1123.2 827.732 1123.13 841.995L1123.07 961.298L1090.18 961.169C1087.52 953.122 1089.08 920.593 1090.74 911.618C1095 888.531 1101.6 863.92 1107.46 840.995C1111.83 823.876 1116.5 797.707 1122.42 781.724Z"/><path fill="#FDFBF7" transform="matrix(5.84273 -0.215265 0.227622 5.52553 0 440.862)" d="M434.939 361.296L498.109 361.07C494.427 380.021 491.847 407.992 489.602 427.76C489.302 429.02 488.757 430.002 488.213 431.191C481.085 435.808 454.689 433.643 445.487 433.268C440.437 412.764 437.54 382.863 434.939 361.296Z"/><path fill="#F09FA5" transform="matrix(5.84273 -0.215265 0.227622 5.52553 0 440.862)" d="M1227.65 526.283C1231.15 525.465 1232.26 526.167 1233.72 529.034L1232.79 531.608C1229.94 534.351 1226.87 534.188 1223 534.941C1182.21 542.883 1141.42 551.572 1100.97 561.1C1082.57 565.435 1062.66 569.927 1044.71 575.645C1036.84 578.15 1024.87 584.4 1018.95 590.137C1000.67 607.865 994.692 633.81 980.806 654.234C969.006 638.007 968.773 612.797 980.244 596.385C994.091 576.933 1022.14 569.892 1044.18 564.85C1105.08 550.923 1166.24 537.739 1227.65 526.283Z"/><path fill="#FDFBF7" transform="matrix(5.84273 -0.215265 0.227622 5.52553 0 440.862)" d="M1669.91 809.944L1848.81 809.7L1843.07 828.287L1842.35 829.663C1837.16 832.869 1695.09 831.838 1675.67 831.829C1673.64 824.648 1671.79 817.183 1669.91 809.944Z"/><path fill="#9ED0C9" transform="matrix(5.84273 -0.215265 0.227622 5.52553 0 440.862)" d="M398.882 436.145C411.803 436.054 424.576 435.755 437.468 436.677C443.185 437.086 450.762 440.474 455.963 440.287C473.056 439.671 490.201 437.378 507.34 437.482C514.434 437.507 526.503 438.552 529.367 446.562C531.457 452.408 527.129 459.476 524.456 464.639C517.175 470.406 488.772 468.197 478.559 468.174L400.627 468.116C404.599 453.946 404.764 449.382 398.882 436.145Z"/><path fill="#9ED0C9" transform="matrix(5.84273 -0.215265 0.227622 5.52553 0 440.862)" d="M1930.8 724.973C1933.1 735.121 1913.85 755.237 1907.28 762.157C1897.77 772.175 1886.28 778.963 1875.22 786.633C1846.02 806.883 1820 803.312 1786.37 803.165L1786.3 802.091C1792.46 790.783 1911.87 733.724 1930.8 724.973Z"/><path fill="#9ED0C9" transform="matrix(5.84273 -0.215265 0.227622 5.52553 0 440.862)" d="M1294.26 169.055C1304.2 171.373 1299.68 192.734 1304.3 197.953C1323.19 219.257 1324.97 217.626 1320.41 247.809C1301.62 232.325 1290.51 224.252 1269.27 212.37C1277.27 212.157 1296.95 212.801 1302.08 207.085L1300.78 205.736C1291.07 202.741 1280.4 204.535 1270.35 205.604C1234.93 212.037 1222.7 218.096 1192.14 235.581C1213.68 198.421 1255.8 182.477 1294.26 169.055Z"/><path fill="#9ED0C9" transform="matrix(5.84273 -0.215265 0.227622 5.52553 0 440.862)" d="M1901.55 713.438L1902.29 713.389C1907.44 713.082 1923.71 713.661 1927.55 717.064C1926.22 720.842 1920.56 722.089 1917 723.659C1879.47 740.205 1843.32 759.521 1807.68 779.731C1801.36 783.356 1794.89 787.425 1788.64 791.224C1796.38 775.478 1800.01 764.548 1805.61 747.992C1839.9 725.269 1860.75 716.852 1901.55 713.438Z"/><path fill="#FDFBF7" transform="matrix(5.84273 -0.215265 0.227622 5.52553 0 440.862)" d="M1320.57 871.039C1325.87 875.489 1331.85 884.213 1336.1 890.044C1281.16 944.671 1288.63 943.354 1212.25 945.701L1197.87 945.618C1212.97 933.455 1236.19 924.835 1254.28 917.631L1269.97 923.211C1280.64 908.255 1288.78 895.526 1297.87 879.599C1306.39 876.792 1312.47 874.783 1320.57 871.039Z"/><path fill="#FDFBF7" transform="matrix(5.84273 -0.215265 0.227622 5.52553 0 440.862)" d="M881.298 900.292C892.619 904.914 913.657 918.384 928.427 924.94C924.995 931.138 921.867 938.417 918.906 944.933C869.21 945.749 819.683 945.217 769.985 944.997C772.616 941.334 774.026 939.824 777.215 936.599C789.425 931.56 815.741 924.964 829.368 921.222C834.355 923.465 839.132 925.546 843.814 928.398C848.38 931.179 849.497 936.924 854.902 936.684L855.972 935.121C855.036 929.215 846.33 921.778 841.954 917.494L843.039 916.776C847.804 916.125 856.192 917.146 858.865 921.615L857.374 926.497L858.638 927.666C862.087 927.214 888.01 917.355 893.327 915.382L894.04 913.176C891.2 909.662 881.195 910.824 878.207 906.249C878.278 902.678 878.393 903.628 881.298 900.292Z"/><path fill="#9ED0C9" transform="matrix(5.84273 -0.215265 0.227622 5.52553 0 440.862)" d="M1700.21 922.213C1711.43 922.536 1724.15 923.13 1735.13 925.392C1767.91 932.146 1782.53 941.977 1815.58 930.315L1810.43 950.255L1807.36 960.836L1710.36 960.932C1706.65 949.379 1702.74 933.975 1700.21 922.213Z"/><path fill="#F09FA5" transform="matrix(5.84273 -0.215265 0.227622 5.52553 0 440.862)" d="M1292.62 783.795C1298.72 787.699 1308.71 797.534 1314.23 802.836C1286.71 821.328 1259.78 839.398 1231.21 856.309C1223.68 849.999 1215.59 843.887 1207.81 837.857C1236.06 819.225 1263.9 801.731 1292.62 783.795Z"/><path fill="#9ED0C9" transform="matrix(5.84273 -0.215265 0.227622 5.52553 0 440.862)" d="M1609.85 698.209C1647.19 695.743 1679.33 705.977 1706.42 731.871C1707.56 737.313 1714.83 760.493 1712.39 763.779L1709.58 762.797C1698.23 756.28 1602.55 703.677 1601.42 701.057C1603.71 699.116 1606.79 698.854 1609.85 698.209Z"/><path fill="#9ED0C9" transform="matrix(5.84273 -0.215265 0.227622 5.52553 0 440.862)" d="M832.304 452.293L915.361 451.971C933.092 451.928 955.495 450.999 973.146 453.848C984.095 455.615 1006.5 464.66 1019.04 466.523C1019.32 466.931 1019.6 467.34 1019.88 467.748C999.982 469.178 973.426 466.837 952.747 467.193C912.903 467.877 874.149 468.461 834.313 466.834C834.857 460.305 834.341 458.573 832.304 452.293Z"/><path fill="#FDFBF7" transform="matrix(5.84273 -0.215265 0.227622 5.52553 0 440.862)" d="M1382.78 854.685C1385.87 855.862 1388.38 858.556 1390.87 860.824C1370.04 881.653 1348.86 901.789 1327.21 921.752C1313.04 934.816 1298.88 948.78 1284.08 961.07L1198.75 961.307C1194.82 960.973 1195.81 961.564 1192.77 959.484L1192.51 957.305C1199.93 946.897 1260.77 952.92 1278.63 947.113C1295.84 941.515 1364.53 871.739 1382.78 854.685Z"/><path fill="#9ED0C9" transform="matrix(5.84273 -0.215265 0.227622 5.52553 0 440.862)" d="M1678.48 752.928C1688.96 757.216 1708.41 769.643 1718.34 775.752C1721.98 785.305 1727.01 794.159 1732.19 802.933C1719.96 803.164 1709.8 803.855 1697.79 801.016C1674.89 794.403 1660.24 786.393 1640.61 773.749C1653.6 766.959 1665.74 760.195 1678.48 752.928Z"/><path fill="#FDFBF7" transform="matrix(5.84273 -0.215265 0.227622 5.52553 0 440.862)" d="M765.107 951.073L919.405 950.903C929.511 950.892 978.053 950.233 984.571 951.36C985.936 953.875 985.519 957.846 985.489 960.918C940.014 962.591 884.497 961.116 837.999 961.135L792.104 961.153C785.658 961.156 771.824 961.549 766.116 960.432C764.224 957.972 764.923 954.308 765.107 951.073Z"/><path fill="#9ED0C9" transform="matrix(5.84273 -0.215265 0.227622 5.52553 0 440.862)" d="M1596.46 708.423C1610.35 712.795 1657.23 740.371 1672.66 749.136L1660.27 755.951L1635.87 769.207C1614.16 752.447 1604.06 734.236 1596.46 708.423Z"/><path fill="#9ED0C9" transform="matrix(5.84273 -0.215265 0.227622 5.52553 0 440.862)" d="M1089.02 754.742C1096.67 759.12 1108.67 769.314 1115.82 775.142L1095.15 861.44C1093.7 868.527 1091.32 875.697 1089.17 882.629C1087.64 842.897 1088.4 794.547 1089.02 754.742Z"/><path fill="#9ED0C9" transform="matrix(5.84273 -0.215265 0.227622 5.52553 0 440.862)" d="M1088.06 500.718L1122.56 500.834C1122.9 512.19 1123.86 527.768 1121.65 538.903C1121.3 540.665 1120.57 540.579 1118.75 541.586C1109.89 543.999 1097.38 546.459 1088.18 548.525L1088.06 500.718Z"/><path fill="#9ED0C9" transform="matrix(5.84273 -0.215265 0.227622 5.52553 0 440.862)" d="M1026.78 405.431C1028.34 405.207 1028.52 405.374 1030.08 405.628C1030.4 409.013 1026.13 412.813 1024.31 417.178C1017.51 433.582 1019.6 445.82 1025.16 461.468L1003.51 456.901C978.494 450.305 990.992 421.074 1004.25 408.255C1010.54 406.958 1020.16 406.161 1026.78 405.431Z"/><path fill="#FDFBF7" transform="matrix(5.84273 -0.215265 0.227622 5.52553 0 440.862)" d="M1310.48 812.824C1316.37 816.09 1322.38 821.53 1327.61 825.941C1314.87 847.232 1302.89 849.962 1280.94 856.806L1263.49 844.164L1310.48 812.824Z"/><path fill="#9ED0C9" transform="matrix(5.84273 -0.215265 0.227622 5.52553 0 440.862)" d="M979.774 912.203C984.072 916.37 985.301 937.904 985.956 944.932L932.75 944.837C929.38 944.78 930.596 945.172 927.89 943.61C926.503 938.252 933.234 930.056 936.2 925.548L979.774 912.203Z"/><path fill="#9ED0C9" transform="matrix(5.84273 -0.215265 0.227622 5.52553 0 440.862)" d="M1352.11 832.166C1357 834.356 1373.63 846.161 1378.85 849.736C1368.83 859.695 1357.11 870.05 1346.62 879.678L1340.04 885.397L1326.89 867.005C1336.5 856.251 1344.29 844.229 1352.11 832.166Z"/><path fill="#9ED0C9" transform="matrix(5.84273 -0.215265 0.227622 5.52553 0 440.862)" d="M1677.4 838.354C1696.97 837.87 1827.91 835.971 1838.56 839.204C1840.27 841.94 1839.65 841.89 1839.51 845.753C1810.83 847.285 1774.8 845.051 1745.21 846.026C1734.7 846.372 1686.85 846.629 1680.24 845.452C1678.14 843.387 1678 841.218 1677.4 838.354Z"/><path fill="#FDFBF7" transform="matrix(5.84273 -0.215265 0.227622 5.52553 0 440.862)" d="M914.694 868.366C925.961 869.979 964.003 876.831 971.391 883.534C973.779 890.574 967.096 892.584 961.652 894.888C939.817 904.705 924.642 895.38 907.786 882.231L914.694 868.366Z"/><path fill="#9ED0C9" transform="matrix(5.84273 -0.215265 0.227622 5.52553 0 440.862)" d="M1335.4 824.353C1338.55 825.213 1343.66 827.224 1346.9 828.378C1324.16 863.331 1323.54 866.63 1282.98 876.262C1279.16 877.254 1277.18 877.966 1273.81 875.795C1272.1 872.606 1272.7 867.805 1272.82 864.031C1304.84 858.582 1319.11 854.085 1335.4 824.353Z"/><path fill="#9ED0C9" transform="matrix(5.84273 -0.215265 0.227622 5.52553 0 440.862)" d="M900.798 885.794C919.803 902.48 937.296 910.596 963.066 901.315C967.665 899.659 971.186 897.177 976.025 895.722C978.489 897.685 979.13 901.609 977.961 904.464C975.685 907.124 972.213 907.652 968.754 908.642L932.491 919.758C918.34 913.593 902.548 903.982 889.278 896.084L900.798 885.794Z"/><path fill="#F09FA5" transform="matrix(5.84273 -0.215265 0.227622 5.52553 0 440.862)" d="M401.277 395.929L432.711 396.005C434.057 402.497 438.867 422.986 436.47 428.497L434.25 429.315L400.578 429.167C408.296 415.638 407.574 409.508 401.277 395.929Z"/><path fill="#9ED0C9" transform="matrix(5.84273 -0.215265 0.227622 5.52553 0 440.862)" d="M1224.16 404.669C1224.34 404.822 1225.41 405.653 1225.66 406.237C1251.46 466.923 1274.15 529.407 1297.72 591.025C1297.42 592.334 1297.18 593.369 1297.01 594.129C1290.54 590.005 1280.45 558.898 1277.2 550.456L1251.04 482.836L1232.98 436.704C1229.73 428.63 1226.14 420.138 1223.1 411.972C1221.99 408.997 1223.03 407.904 1224.16 404.669Z"/><path fill="#9ED0C9" transform="matrix(5.84273 -0.215265 0.227622 5.52553 0 440.862)" d="M1247.05 178.109L1248.23 178.351C1248.14 178.809 1217.27 198.132 1213.23 201.42C1187.71 222.186 1178.23 252.585 1166.92 282.281L1165.47 281.891C1162.73 271.226 1170.61 249.314 1175.81 239.69C1196.09 202.191 1207.66 190.839 1247.05 178.109Z"/><path fill="#9ED0C9" transform="matrix(5.84273 -0.215265 0.227622 5.52553 0 440.862)" d="M708.477 279.725C724.08 288.449 785.128 397.242 801.056 418.251C804.238 422.448 827.332 458.564 829.121 463.614C818.625 459.272 756.524 352.981 744.366 336.405C738.325 328.169 711.565 288.37 708.477 279.725Z"/><path fill="#F09FA5" transform="matrix(5.84273 -0.215265 0.227622 5.52553 0 440.862)" d="M1189.7 474.298C1198.73 474.194 1208.06 474.488 1217.12 474.658L1223.82 494.012L1189.67 493.761L1189.7 474.298Z"/><defs><linearGradient id="gradient_1" gradientUnits="userSpaceOnUse" x1="526.09546" y1="395.55951" x2="492.94205" y2="401.21606"><stop offset="0" stop-color="#F8DDD3"/><stop offset="1" stop-color="#EAE5DE"/></linearGradient></defs><path fill="url(#gradient_1)" transform="matrix(5.84273 -0.215265 0.227622 5.52553 0 440.862)" d="M501.191 370.743C532.497 373.203 542.393 416.892 500.256 429.191C496.609 428.383 497.822 429.145 495.549 426.475C495.611 417.826 515.582 420.084 520.423 408.667C527.996 390.81 504.231 382.042 501.191 370.743Z"/><path fill="#9ED0C9" transform="matrix(5.84273 -0.215265 0.227622 5.52553 0 440.862)" d="M1156.35 245.707C1159.11 247.353 1162 251.51 1161.37 254.597C1158.98 266.341 1161.89 301.404 1154.62 308.976C1151.41 291.397 1148.98 273.096 1147.65 255.28C1150.91 250.856 1152.29 249.443 1156.35 245.707Z"/><path fill="#F09FA5" transform="matrix(5.84273 -0.215265 0.227622 5.52553 0 440.862)" d="M431.766 349.38C448.201 349.04 482.732 347.666 499.899 350.233C501.642 350.493 502.27 353.222 502.969 355.059C487.242 355.449 449.883 357.117 433.476 353.487C432.215 353.208 432.112 350.953 431.766 349.38Z"/><path fill="#F09FA5" transform="matrix(5.84273 -0.215265 0.227622 5.52553 0 440.862)" d="M500.834 383.548C514.824 390.263 518.44 397.681 509.23 410.699C505.212 413.257 502.498 414.68 498.793 411.51C496.091 404.42 499.407 391.466 500.834 383.548Z"/><path fill="#230F26" fill-opacity="0.98039216" transform="matrix(5.84273 -0.215265 0.227622 5.52553 0 440.862)" d="M1182.12 825.13C1183.54 826.901 1187.41 830.792 1187.93 831.486C1183.27 834.632 1182.93 858.422 1180.01 865.601C1178.94 858.65 1182.06 853.282 1176.41 848.788C1177.32 841.394 1178.31 831.347 1182.12 825.13Z"/><path fill="#FDFBF7" transform="matrix(5.84273 -0.215265 0.227622 5.52553 0 440.862)" d="M1196.89 449.667C1200.93 451.954 1203.12 460.486 1202.26 465.278C1200.01 468.069 1200.86 467.236 1196.95 468.31L1191.23 468.028C1188.39 466.159 1189.15 467.257 1188.38 463.917C1189.4 459.401 1194.07 453.651 1196.89 449.667Z"/><path fill="#FBEAC3" transform="matrix(5.84273 -0.215265 0.227622 5.52553 0 440.862)" d="M1125.8 392.005C1137.59 394.633 1148.15 403.253 1154.31 413.434C1143.44 412.612 1132.63 399.695 1125.8 392.005Z"/><path fill="#9ED0C9" transform="matrix(5.84273 -0.215265 0.227622 5.52553 0 440.862)" d="M1203.99 437.542C1209.27 440.525 1213.41 462.495 1214.05 468.661L1213.65 468.247C1208.37 462.821 1201.13 444.922 1203.99 437.542Z"/><path fill="#FDFBF7" transform="matrix(5.84273 -0.215265 0.227622 5.52553 0 440.862)" d="M1281.45 882.382C1283.28 882.11 1285.3 882.068 1287.17 881.978L1288.55 883.45L1287.78 885.792C1284.97 888.589 1284.54 889.13 1280.75 890.291C1277.28 889.779 1272.94 889.875 1271.98 886.193C1274.2 883.668 1278.04 883.206 1281.45 882.382Z"/><path fill="#FDFBF7" transform="matrix(5.84273 -0.215265 0.227622 5.52553 0 440.862)" d="M864.213 908.914C867.643 909.967 872.429 911.03 874.885 913.406L874.854 915.257L871.482 917.946C866.94 916.873 862.522 916.251 859.608 912.92C860.775 910.154 861.158 910.629 864.213 908.914Z"/><path fill="#FDFBF7" transform="matrix(5.84273 -0.215265 0.227622 5.52553 0 440.862)" d="M1265.23 895.113C1268.9 894.757 1274.27 894.396 1277.41 896.28C1279.4 899.227 1278.95 897.811 1278.52 902.063C1271.73 904.165 1266.43 902.622 1265.23 895.113Z"/><path fill="#FDFBF7" transform="matrix(5.84273 -0.215265 0.227622 5.52553 0 440.862)" d="M1259.21 906.505C1262.81 906.845 1266.76 906.829 1269.64 908.885C1270.9 912.297 1270.57 911.198 1268.85 915.418C1265.54 914.846 1262.34 914.598 1259.57 912.744C1257.77 909.691 1258.22 910.806 1259.21 906.505Z"/><path fill="#6DA5A3" transform="matrix(5.84273 -0.215265 0.227622 5.52553 0 440.862)" d="M1787.72 66.4934C1802.55 66.2653 1818.93 66.7926 1833.88 66.9558L1834.12 325.379C1814.8 326.76 1780.32 325.691 1760.21 325.686L1616.5 325.63L1569.48 325.672C1568.22 296.304 1569.26 265.183 1569.21 235.631L1567.97 66.8839L1787.72 66.4934ZM1578.03 317.994L1760.42 318.264C1772.44 318.284 1817.38 319.866 1825.41 317.776L1824.91 75.1027L1577.76 75.2337L1578.03 317.994Z"/><path fill="#6DA5A3" fill-opacity="0.96862745" transform="matrix(5.84273 -0.215265 0.227622 5.52553 0 440.862)" d="M1615.65 112.041C1629.84 110.807 1659.62 111.646 1674.56 111.68L1787.55 111.991C1786.32 167.05 1787.43 225.461 1787.59 280.804C1769.65 281.688 1745.66 281.013 1727.08 281.015L1615.4 280.926C1613.08 231.633 1614.57 162.033 1615.65 112.041ZM1620.83 276.098C1673.13 276.079 1729.92 277.218 1781.83 275.947L1781.62 116.046C1729.27 116.033 1672.9 114.911 1620.9 116.058L1620.83 276.098Z"/><path fill="#6DA5A3" fill-opacity="0.97647059" transform="matrix(5.84273 -0.215265 0.227622 5.52553 0 440.862)" d="M1586.27 83.7789L1817.53 83.6591L1817.72 231.658C1817.8 253.022 1819.13 288.754 1817.38 309.136C1789.95 310.175 1759.05 309.6 1731.46 309.546L1585.32 309.163C1585.45 301.409 1585.23 285.796 1586.01 278.677C1588.09 273.549 1587.78 265.931 1587.93 260.31C1588.56 268.465 1588.09 300.603 1589.56 304.535L1590.58 305.003C1651.83 304.161 1713.27 305.255 1774.54 304.822C1786.82 304.735 1799.12 305.116 1811.36 303.98C1812.81 281.475 1811.9 252.766 1811.95 229.888L1811.67 88.5681L1590.63 88.6855C1590.62 94.4293 1590.55 98.5414 1589.99 104.317C1587.27 111.372 1587.6 156.124 1587.52 167.199C1586.56 149.075 1587.87 128.439 1587.3 110.106C1587.05 102.024 1587.76 91.5591 1586.27 83.7789Z"/><path fill="#6DA5A3" fill-opacity="0.87450981" transform="matrix(5.84273 -0.215265 0.227622 5.52553 0 440.862)" d="M1586.01 278.677C1584.48 249.863 1587.11 215.705 1585.03 186.378C1583.98 171.585 1583.87 88.5691 1586.27 83.7789C1587.76 91.5591 1587.05 102.024 1587.3 110.106C1587.87 128.439 1586.56 149.075 1587.52 167.199C1587.6 156.124 1587.27 111.372 1589.99 104.317C1590.57 116.411 1590.33 129.319 1590.14 141.452C1589.36 193.297 1592.09 245.061 1590.9 296.906C1590.84 299.459 1590.96 302.525 1590.58 305.003L1589.56 304.535C1588.09 300.603 1588.56 268.465 1587.93 260.31C1587.78 265.931 1588.09 273.549 1586.01 278.677Z"/></svg>